<svg width="16" height="16" viewBox="0 0 16 16" fill="none" xmlns="http://www.w3.org/2000/svg">
  <path d="M12.077 0.0959515C11.0746 0.144028 10.1106 0.581529 9.36542 1.32672L6.44234 4.2498C6.90148 3.78826 8.60581 4.10557 9.01927 4.51903L10.7885 2.7498C11.1803 2.35797 11.6707 2.11759 12.1731 2.09595C12.5145 2.07912 12.9976 2.15124 13.4231 2.57672C13.8197 2.97336 13.9039 3.43489 13.9039 3.7498C13.9039 4.27624 13.6635 4.80028 13.25 5.21134L10.1731 8.30749C9.39908 9.08153 8.22119 9.14403 7.5385 8.46134C7.14908 8.07191 6.50725 8.06951 6.11542 8.46134C5.72359 8.85316 5.72359 9.49259 6.11542 9.88441C6.81734 10.5863 7.74042 10.9421 8.69234 10.9421C9.72119 10.9421 10.7717 10.5214 11.577 9.71134L14.6731 6.63441C15.4592 5.85076 15.9039 4.80268 15.9039 3.7498C15.9039 2.77143 15.5337 1.84114 14.8462 1.15364C14.1106 0.418067 13.1226 0.0478746 12.077 0.0959515ZM7.30773 5.05749C6.27888 5.05749 5.21158 5.48057 4.40388 6.28826L1.32696 9.36518C0.540903 10.1488 0.0961914 11.1969 0.0961914 12.2498C0.0961914 13.2282 0.466384 14.1585 1.15388 14.846C1.88946 15.5815 2.87744 15.9517 3.92311 15.9036C4.92552 15.8556 5.88946 15.4181 6.63465 14.6729L9.55773 11.7498C9.09619 12.2113 7.39427 11.894 6.98081 11.4806L5.21158 13.2498C4.81975 13.6416 4.32936 13.8796 3.82696 13.9036C3.48561 13.9205 3.00244 13.8484 2.57696 13.4229C2.18033 13.0262 2.09619 12.5623 2.09619 12.2498C2.09619 11.7234 2.33658 11.1993 2.75004 10.7883L5.82696 7.69211C6.601 6.91807 7.77888 6.85797 8.46158 7.53826C8.8534 7.93009 9.49523 7.93009 9.88465 7.53826C10.2765 7.14643 10.2765 6.50701 9.88465 6.11518C9.18273 5.41326 8.25725 5.05749 7.30773 5.05749Z" fill="black"/>
</svg>
