<svg width="14" height="16" viewBox="0 0 14 16" fill="none" xmlns="http://www.w3.org/2000/svg">
  <path d="M13.2122 8.53323C12.8295 7.99384 12.3048 7.56848 11.6462 7.26334C12.0529 6.98594 12.3846 6.66538 12.6397 6.30476C13.0448 5.72992 13.2505 5.01021 13.2505 4.16567C13.2505 3.39819 13.1133 2.73859 12.8454 2.20381C12.5727 1.6598 12.182 1.21749 11.6845 0.889231C11.2013 0.570217 10.6192 0.337507 9.95102 0.200346C9.30835 0.0678095 8.58913 0 7.8157 0H0.408247C0.183392 0 0 0.175689 0 0.394529V15.6055C0 15.8228 0.183392 16 0.408247 16H8.03577C8.77412 16 9.5029 15.9091 10.2014 15.7303C10.9142 15.5484 11.5585 15.2633 12.1182 14.8842C12.6907 14.4943 13.1516 13.9857 13.4897 13.3724C13.8278 12.7575 14 12.0239 14 11.1963C14 10.1684 13.7337 9.27297 13.2122 8.53323ZM3.86878 2.99287H7.11083C7.41861 2.99287 7.71682 3.01753 8.00387 3.06685C8.28933 3.1177 8.54289 3.20709 8.76455 3.33346C8.98462 3.46137 9.16004 3.64015 9.2924 3.86669C9.42476 4.09478 9.49174 4.38605 9.49174 4.74051C9.49174 5.38008 9.2924 5.84088 8.89532 6.12445C8.49823 6.40955 7.99112 6.55134 7.37396 6.55134H3.86878V2.99287ZM9.92072 11.9838C9.78198 12.2396 9.5938 12.4415 9.35938 12.591C9.12336 12.7405 8.85226 12.8469 8.54289 12.9116C8.23511 12.9748 7.91138 13.0071 7.5733 13.0071H3.86878V8.83067H7.63868C8.38979 8.83067 8.991 8.99865 9.44709 9.33154C9.90318 9.66596 10.1312 10.2238 10.1312 11.0052C10.1296 11.4013 10.0595 11.728 9.92072 11.9838Z" fill="black"/>
</svg>
