<svg width="22" height="16" viewBox="0 0 22 16" fill="none" xmlns="http://www.w3.org/2000/svg">
  <path d="M1.60976 0C1.18282 0 0.773375 0.164401 0.471487 0.457036C0.169599 0.749671 0 1.14657 0 1.56042C0 1.97427 0.169599 2.37117 0.471487 2.6638C0.773375 2.95644 1.18282 3.12084 1.60976 3.12084C2.03669 3.12084 2.44614 2.95644 2.74803 2.6638C3.04991 2.37117 3.21951 1.97427 3.21951 1.56042C3.21951 1.14657 3.04991 0.749671 2.74803 0.457036C2.44614 0.164401 2.03669 0 1.60976 0ZM5.90244 0.52014V2.6007H22V0.52014H5.90244ZM1.60976 6.24167C1.18282 6.24167 0.773375 6.40608 0.471487 6.69871C0.169599 6.99135 0 7.38824 0 7.80209C0 8.21594 0.169599 8.61284 0.471487 8.90548C0.773375 9.19811 1.18282 9.36251 1.60976 9.36251C2.03669 9.36251 2.44614 9.19811 2.74803 8.90548C3.04991 8.61284 3.21951 8.21594 3.21951 7.80209C3.21951 7.38824 3.04991 6.99135 2.74803 6.69871C2.44614 6.40608 2.03669 6.24167 1.60976 6.24167ZM5.90244 6.76181V8.84237H22V6.76181H5.90244ZM1.60976 12.4833C1.18282 12.4833 0.773375 12.6478 0.471487 12.9404C0.169599 13.233 0 13.6299 0 14.0438C0 14.4576 0.169599 14.8545 0.471487 15.1472C0.773375 15.4398 1.18282 15.6042 1.60976 15.6042C2.03669 15.6042 2.44614 15.4398 2.74803 15.1472C3.04991 14.8545 3.21951 14.4576 3.21951 14.0438C3.21951 13.6299 3.04991 13.233 2.74803 12.9404C2.44614 12.6478 2.03669 12.4833 1.60976 12.4833ZM5.90244 13.0035V15.084H22V13.0035H5.90244Z" fill="black"/>
</svg>
