<svg width="16" height="16" viewBox="0 0 16 16" fill="none" xmlns="http://www.w3.org/2000/svg">
<circle cx="8" cy="8" r="8" fill="white"/>
<path fill-rule="evenodd" clip-rule="evenodd" d="M8.24752 1.08618C7.19375 1.08618 6.17115 1.41629 5.39545 2.10018C4.60392 2.79803 4.14404 3.80143 4.14404 4.97238C4.14404 5.614 4.66418 6.13414 5.3058 6.13414C5.94742 6.13414 6.46755 5.614 6.46755 4.97238C6.46755 4.44056 6.66132 4.08173 6.93204 3.84305C7.2186 3.59042 7.66686 3.40969 8.24752 3.40969C8.75892 3.40969 9.24324 3.62924 9.53397 3.93873C9.79542 4.21704 9.89366 4.54499 9.76006 4.94437C9.62348 5.35265 9.16936 5.90707 8.57313 6.47902C8.33349 6.7089 8.10527 6.91032 7.9078 7.08461L7.90778 7.08463L7.81964 7.16248C7.71943 7.25115 7.61079 7.34796 7.52583 7.43152C7.48576 7.47093 7.42319 7.53424 7.36349 7.60909C7.33439 7.64557 7.2837 7.71223 7.23511 7.80081C7.20162 7.86185 7.0857 8.07739 7.08577 8.37821L7.08564 9.69741L7.08551 10.437L7.08546 10.6731L7.08545 10.7386L7.08545 10.7557L7.08545 10.7601V10.7612V10.7615V10.7616L8.22349 10.7618L7.08545 10.7616C7.08532 11.4032 7.60535 11.9235 8.24697 11.9236C8.88859 11.9237 9.40883 11.4037 9.40896 10.7621L8.27091 10.7618L9.40896 10.762V10.762V10.7617L9.40896 10.7606L9.40896 10.7562L9.40896 10.739L9.40898 10.6736L9.40902 10.4375L9.40915 9.69778L9.40923 8.85853L9.44171 8.82987L9.44172 8.82986C9.63801 8.6567 9.90435 8.42175 10.1816 8.15578C10.7743 7.58719 11.6274 6.68643 11.9635 5.68148C12.3983 4.38184 12.0066 3.17729 11.2274 2.34786C10.4776 1.54961 9.37056 1.08618 8.24752 1.08618ZM8.28571 15.1599C8.91266 15.1599 9.4209 14.6517 9.4209 14.0247C9.4209 13.3978 8.91266 12.8895 8.28571 12.8895C7.65877 12.8895 7.15053 13.3978 7.15053 14.0247C7.15053 14.6517 7.65877 15.1599 8.28571 15.1599Z" fill="#EB0000"/>
</svg>
